<svg xmlns="http://www.w3.org/2000/svg" width="1280" height="720" viewBox="0 0 1280 720">
  <rect width="1280" height="720" fill="#e4e8ee"/>
  <rect x="0" y="0" width="1280" height="72" fill="#0f3b9d"/>
  <text x="24" y="45" fill="#ffffff" font-family="Arial, sans-serif" font-size="28" font-weight="700">WIKAMAINT</text>
  <rect x="220" y="98" width="760" height="86" rx="14" fill="#ffffff" stroke="#d2d9e4"/>
  <rect x="220" y="210" width="180" height="130" rx="14" fill="#ffffff" stroke="#d2d9e4"/>
  <rect x="418" y="210" width="180" height="130" rx="14" fill="#ffffff" stroke="#d2d9e4"/>
  <rect x="616" y="210" width="180" height="130" rx="14" fill="#ffffff" stroke="#d2d9e4"/>
  <rect x="814" y="210" width="180" height="130" rx="14" fill="#eef1f6" stroke="#d2d9e4"/>
  <rect x="992" y="86" width="264" height="408" rx="18" fill="#ffffff" stroke="#d2d9e4"/>
  <circle cx="1124" cy="172" r="54" fill="#dbe5f8"/>
  <rect x="1040" y="260" width="168" height="18" rx="8" fill="#d8e2f6"/>
  <rect x="1038" y="312" width="190" height="24" rx="10" fill="#edf2fa"/>
  <rect x="1038" y="354" width="112" height="24" rx="10" fill="#edf2fa"/>
  <text x="640" y="654" text-anchor="middle" fill="#30415f" font-size="34" font-family="Arial, sans-serif" font-weight="700">WIKAMAINT DASHBOARD</text>
</svg>
